<svg width="900" height="988" viewBox="0 0 900 988" fill="none" xmlns="http://www.w3.org/2000/svg">
<path opacity="0.5" d="M439.6 928.1C448.713 928.1 456.1 920.713 456.1 911.6C456.1 902.487 448.713 895.1 439.6 895.1C430.487 895.1 423.1 902.487 423.1 911.6C423.1 920.713 430.487 928.1 439.6 928.1Z" fill="#7A1034"/>
<path d="M216.1 571.9C214.4 561 259.3 538.9 304.1 541.3C341.3 543.3 381.5 562.5 379.7 572.9C376.1 592.7 219.2 591.5 216.1 571.9Z" stroke="#520E35" stroke-width="10" stroke-miterlimit="10"/>
<path d="M217 574C227.5 596.4 233.6 617.4 237 636C262.2 772.6 165.3 887.7 141 915" stroke="#520E35" stroke-width="10" stroke-miterlimit="10"/>
<path d="M379.7 571.4C369.2 593.8 363.1 614.8 359.7 633.4C334.5 770 431.4 885.1 455.7 912.4" stroke="#520E35" stroke-width="10" stroke-miterlimit="10"/>
<path d="M143 912C143 914.2 143.4 916.2 144 918C155.9 953.7 284.4 944.6 307.5 942.5" stroke="#520E35" stroke-width="10" stroke-miterlimit="10"/>
<path d="M453.9 908C453.9 910.5 453.5 912.8 452.9 914.9C441 955.9 326 944.8 302.9 942.4" stroke="#520E35" stroke-width="10" stroke-miterlimit="10"/>
<path d="M222.8 575.8C230.5 543.1 238.5 509.7 236.7 475.8C235.2 448.5 227.1 420.8 209.6 399.4C200.7 388.4 189.1 378.9 175.6 374.3C160.7 369.3 144.5 371.6 130 376.9C104.6 386.2 82.2 403.3 65 424.1C47.4 445.4 35 470.6 28.4 497.5C20.8 528.4 20.8 560.9 26.5 592.1C31.9 621.8 42.3 651.8 60.2 676.4C69.3 688.9 80.9 698.9 90.7 710.7C100.7 722.7 107.4 737.1 112 752C120.6 779.8 120.9 812.8 99.8 835.2C91.5 844 80.1 850.6 67.8 851.1C56.5 851.6 44.8 847.6 36.6 839.7C32.6 835.9 29.6 831.3 27.9 826C26.7 822.3 20.9 823.9 22.1 827.6C29.5 850.6 57 862 79.3 855.2C105.3 847.3 120.8 821.1 123.3 795.2C124.8 779.3 122 763.1 117 748C112.2 733.3 105.4 719.2 95.5 707.2C85.7 695.3 73.9 685.3 64.9 672.8C56.2 660.7 49.3 647.2 44.1 633.3C33.1 604.1 27.6 572.5 28.6 541.3C29.5 511.5 36.7 481.8 51.1 455.5C63.7 432.4 81.6 412 103.6 397.4C115.4 389.5 128.5 383 142.4 379.7C150 377.9 157.9 377.1 165.6 378.3C173 379.4 180 382.3 186.3 386.3C209.7 401.3 222.9 428.3 228.2 454.9C234.5 486.4 229.6 518.9 222.8 549.9C221 558.1 219.1 566.2 217.2 574.4C216.1 577.9 221.9 579.5 222.8 575.8Z" fill="#520E35"/>
<path opacity="0.5" d="M170.5 931C179.613 931 187 923.613 187 914.5C187 905.387 179.613 898 170.5 898C161.387 898 154 905.387 154 914.5C154 923.613 161.387 931 170.5 931Z" fill="#7A1034"/>
<path opacity="0.5" d="M203.5 939C212.613 939 220 931.613 220 922.5C220 913.387 212.613 906 203.5 906C194.387 906 187 913.387 187 922.5C187 931.613 194.387 939 203.5 939Z" fill="#7A1034"/>
<path opacity="0.5" d="M407.6 937.7C416.713 937.7 424.1 930.313 424.1 921.2C424.1 912.087 416.713 904.7 407.6 904.7C398.487 904.7 391.1 912.087 391.1 921.2C391.1 930.313 398.487 937.7 407.6 937.7Z" fill="#7A1034"/>
<path opacity="0.5" d="M237.6 939.1C246.713 939.1 254.1 931.713 254.1 922.6C254.1 913.487 246.713 906.1 237.6 906.1C228.487 906.1 221.1 913.487 221.1 922.6C221.1 931.713 228.487 939.1 237.6 939.1Z" fill="#7A1034"/>
<path opacity="0.5" d="M373.6 940.1C382.713 940.1 390.1 932.713 390.1 923.6C390.1 914.487 382.713 907.1 373.6 907.1C364.487 907.1 357.1 914.487 357.1 923.6C357.1 932.713 364.487 940.1 373.6 940.1Z" fill="#7A1034"/>
<path opacity="0.5" d="M271.6 939.1C280.713 939.1 288.1 931.713 288.1 922.6C288.1 913.487 280.713 906.1 271.6 906.1C262.487 906.1 255.1 913.487 255.1 922.6C255.1 931.713 262.487 939.1 271.6 939.1Z" fill="#7A1034"/>
<path opacity="0.5" d="M306.6 937.1C315.713 937.1 323.1 929.713 323.1 920.6C323.1 911.487 315.713 904.1 306.6 904.1C297.487 904.1 290.1 911.487 290.1 920.6C290.1 929.713 297.487 937.1 306.6 937.1Z" fill="#7A1034"/>
<path opacity="0.5" d="M339.6 939.1C348.713 939.1 356.1 931.713 356.1 922.6C356.1 913.487 348.713 906.1 339.6 906.1C330.487 906.1 323.1 913.487 323.1 922.6C323.1 931.713 330.487 939.1 339.6 939.1Z" fill="#7A1034"/>
<path opacity="0.5" d="M303.5 581C312.613 581 320 573.613 320 564.5C320 555.387 312.613 548 303.5 548C294.387 548 287 555.387 287 564.5C287 573.613 294.387 581 303.5 581Z" fill="#7A1034"/>
<path opacity="0.5" d="M336.5 750C345.613 750 353 742.613 353 733.5C353 724.387 345.613 717 336.5 717C327.387 717 320 724.387 320 733.5C320 742.613 327.387 750 336.5 750Z" fill="#7A1034"/>
<path opacity="0.5" d="M237.5 852C246.613 852 254 844.613 254 835.5C254 826.387 246.613 819 237.5 819C228.387 819 221 826.387 221 835.5C221 844.613 228.387 852 237.5 852Z" fill="#7A1034"/>
<path opacity="0.5" d="M317.4 660L336.4 712.4" stroke="#520E35" stroke-miterlimit="10"/>
<path opacity="0.5" d="M308 662L327 714.5" stroke="#520E35" stroke-miterlimit="10"/>
<path opacity="0.5" d="M259.9 754.9L240.9 807.3" stroke="#520E35" stroke-miterlimit="10"/>
<path opacity="0.5" d="M269.3 757L250.3 809.4" stroke="#520E35" stroke-miterlimit="10"/>
<path d="M572.5 987C636.841 987 689 937.751 689 877C689 816.249 636.841 767 572.5 767C508.159 767 456 816.249 456 877C456 937.751 508.159 987 572.5 987Z" stroke="#520E35" stroke-width="2" stroke-miterlimit="10"/>
<path d="M725 965C767.526 965 802 930.526 802 888C802 845.474 767.526 811 725 811C682.474 811 648 845.474 648 888C648 930.526 682.474 965 725 965Z" stroke="#520E35" stroke-width="2" stroke-miterlimit="10"/>
<path d="M842 945C873.48 945 899 919.48 899 888C899 856.52 873.48 831 842 831C810.52 831 785 856.52 785 888C785 919.48 810.52 945 842 945Z" stroke="#520E35" stroke-width="2" stroke-miterlimit="10"/>
<path opacity="0.5" d="M180.5 374C189.613 374 197 366.613 197 357.5C197 348.387 189.613 341 180.5 341C171.387 341 164 348.387 164 357.5C164 366.613 171.387 374 180.5 374Z" fill="#520E35"/>
<path opacity="0.5" d="M16.5 827C25.6127 827 33 819.613 33 810.5C33 801.387 25.6127 794 16.5 794C7.3873 794 0 801.387 0 810.5C0 819.613 7.3873 827 16.5 827Z" fill="#520E35"/>
<path d="M254 423C285.48 423 311 397.48 311 366C311 334.52 285.48 309 254 309C222.52 309 197 334.52 197 366C197 397.48 222.52 423 254 423Z" stroke="#520E35" stroke-width="2" stroke-miterlimit="10"/>
<path d="M241 341C283.526 341 318 306.526 318 264C318 221.474 283.526 187 241 187C198.474 187 164 221.474 164 264C164 306.526 198.474 341 241 341Z" stroke="#520E35" stroke-width="2" stroke-miterlimit="10"/>
<path d="M196.5 221C260.841 221 313 171.751 313 111C313 50.2487 260.841 1 196.5 1C132.159 1 80 50.2487 80 111C80 171.751 132.159 221 196.5 221Z" stroke="#520E35" stroke-width="2" stroke-miterlimit="10"/>
</svg>
